<svg xmlns="http://www.w3.org/2000/svg" viewBox="0 0 960 540" role="img" aria-labelledby="title desc">
  <title id="title">Laptop hardware map blue lineart</title>
  <desc id="desc">Blue lineart laptop diagram showing USB-C, HDMI, SO-DIMM memory, M.2 SSD, Wi-Fi card, battery, keyboard, and display zones.</desc>
  <rect width="960" height="540" fill="#ffffff"/>
  <g fill="none" stroke="#0b63ce" stroke-linecap="round" stroke-linejoin="round">
    <rect x="190" y="54" width="580" height="314" rx="24" stroke-width="10"/>
    <rect x="224" y="88" width="512" height="246" rx="10" stroke-width="5"/>
    <path d="M132 382h696l60 70H72l60-70z" stroke-width="10"/>
    <path d="M270 414h420" stroke-width="8"/>
    <rect x="386" y="414" width="188" height="34" rx="10" stroke-width="5"/>
    <rect x="154" y="402" width="68" height="24" rx="7" stroke-width="5"/>
    <rect x="244" y="402" width="92" height="24" rx="7" stroke-width="5"/>
    <rect x="644" y="402" width="84" height="24" rx="7" stroke-width="5"/>
    <rect x="752" y="402" width="58" height="24" rx="7" stroke-width="5"/>
    <rect x="274" y="146" width="156" height="46" rx="10" stroke-width="5"/>
    <rect x="456" y="146" width="96" height="46" rx="10" stroke-width="5"/>
    <rect x="580" y="146" width="110" height="46" rx="10" stroke-width="5"/>
    <rect x="286" y="226" width="164" height="56" rx="10" stroke-width="5"/>
    <rect x="486" y="226" width="188" height="56" rx="10" stroke-width="5"/>
    <path d="M312 160h92M312 178h70M602 160h66M602 178h44M510 244h132M510 264h92" stroke-width="4"/>
  </g>
  <g fill="#0b63ce" font-family="Arial, Helvetica, sans-serif" font-weight="700">
    <text x="480" y="124" font-size="34" text-anchor="middle">Laptop hardware map</text>
    <text x="188" y="446" font-size="22" text-anchor="middle">USB-C</text>
    <text x="290" y="446" font-size="22" text-anchor="middle">HDMI</text>
    <text x="686" y="446" font-size="22" text-anchor="middle">Wi-Fi</text>
    <text x="781" y="446" font-size="22" text-anchor="middle">M.2</text>
    <text x="352" y="174" font-size="20" text-anchor="middle">SO-DIMM RAM</text>
    <text x="504" y="174" font-size="20" text-anchor="middle">SSD</text>
    <text x="635" y="174" font-size="20" text-anchor="middle">Battery</text>
    <text x="368" y="260" font-size="20" text-anchor="middle">Keyboard</text>
    <text x="580" y="260" font-size="20" text-anchor="middle">Touchpad</text>
  </g>
</svg>
